<svg xmlns="http://www.w3.org/2000/svg" width="100" height="100"><path d="M84.998 76.945s-8.451.601-17.408 1.112c-3.332-3.826-2.876-13.444-2.455-17.952 3.486-3.94 6.571-8.943 8.399-14.619.189.318.403.59.686.745 3.124 1.763 2.347-5.447 2.497-8.487.154-3.044 2.346-7.046 0-7.046-.634 0-1.098.097-1.455.234-.432-17.384-4.488-30.931-24.948-30.931-21.786 0-24.709 13.729-24.975 31.282-.343-.303-.952-.584-2.055-.584-2.346 0-.158 4.004 0 7.046.156 3.041-.623 10.251 2.5 8.487.459-.262.774-.773.988-1.43 1.67 5.794 4.626 10.919 8.054 14.972.434 4.337 1.002 14.33-2.398 18.26-9.002-.504-17.427-1.091-17.427-1.091-8.283 0-15 6.882-15 15.372v7.686h100v-7.686c0-8.487-6.72-15.37-15.002-15.37z" fill="#e6e6e6"/></svg>